<svg xmlns="http://www.w3.org/2000/svg" viewBox="0 0 64 64">
  <defs>
    <linearGradient id="vv-bg" x1="0" y1="0" x2="0" y2="1">
      <stop offset="0%" stop-color="#f01020"/>
      <stop offset="100%" stop-color="#c00010"/>
    </linearGradient>
  </defs>
  <rect width="64" height="64" rx="10" fill="url(#vv-bg)"/>
  <!-- Virgin signature-style handwritten text -->
  <g fill="none" stroke="#fff" stroke-linecap="round" stroke-linejoin="round">
    <!-- V -->
    <path d="M10 22 L15.5 38 L21 22" stroke-width="2.8"/>
    <!-- i -->
    <line x1="23.5" y1="26" x2="23.5" y2="38" stroke-width="2.5"/>
    <circle cx="23.5" cy="23" r="1.5" fill="#fff" stroke="none"/>
    <!-- r -->
    <path d="M27 38 L27 28 Q27 26 30 26" stroke-width="2.3"/>
    <!-- g -->
    <path d="M37 26 Q33 26 33 30 Q33 34 37 34 Q37 34 37 38 Q37 42 33 42" stroke-width="2.3"/>
    <!-- i -->
    <line x1="40" y1="26" x2="40" y2="38" stroke-width="2.3"/>
    <circle cx="40" cy="23" r="1.4" fill="#fff" stroke="none"/>
    <!-- n -->
    <path d="M43.5 38 L43.5 28 Q43.5 26 47 26 L47 38" stroke-width="2.3"/>
  </g>
  <!-- Underline flourish -->
  <path d="M8 42 Q20 46 32 42 Q44 38 56 42" fill="none" stroke="rgba(255,255,255,0.5)" stroke-width="1.2" stroke-linecap="round"/>
  <!-- VOYAGES smaller text -->
  <text x="32" y="53" font-family="Arial,sans-serif" font-size="7.5" font-weight="300" fill="rgba(255,255,255,0.8)" text-anchor="middle" letter-spacing="3">VOYAGES</text>
</svg>
